<svg width="73" height="12" viewBox="0 0 73 12" fill="none" xmlns="http://www.w3.org/2000/svg">
<g id="&#208;&#151;&#208;&#178;&#208;&#181;&#208;&#183;&#208;&#180;&#209;&#139;/S">
<path id="Star Icon" fill-rule="evenodd" clip-rule="evenodd" d="M3.70988 7.32085L2.24042 12L6.00894 9.01693L9.95897 11.8114L9.94572 11.7718L9.87813 11.5697L10.0877 11.714L8.50394 7.27029L12.0623 4.89327L7.62966 4.84629L6.00894 0L4.49742 4.81309L0 4.76542L3.70988 7.32085Z" fill="#FFBE1E"/>
<path id="Star Icon_2" fill-rule="evenodd" clip-rule="evenodd" d="M18.7722 7.32085L17.3027 12L21.0713 9.01693L25.0213 11.8114L25.008 11.7718L24.9404 11.5697L25.15 11.714L23.5663 7.27029L27.1246 4.89327L22.692 4.84629L21.0713 0L19.5597 4.81309L15.0623 4.76542L18.7722 7.32085Z" fill="#FFBE1E"/>
<path id="Star Icon_3" fill-rule="evenodd" clip-rule="evenodd" d="M33.8345 7.32085L32.365 12L36.1336 9.01693L40.0836 11.8114L40.0703 11.7718L40.0027 11.5697L40.2123 11.714L38.6286 7.27029L42.1869 4.89327L37.7543 4.84629L36.1336 0L34.622 4.81309L30.1246 4.76542L33.8345 7.32085Z" fill="#FFBE1E"/>
<path id="Star Icon_4" fill-rule="evenodd" clip-rule="evenodd" d="M48.8968 7.32085L47.4274 12L51.1959 9.01693L55.1459 11.8114L55.1327 11.7718L55.0651 11.5697L55.2746 11.714L53.6909 7.27029L57.2492 4.89327L52.8166 4.84629L51.1959 0L49.6844 4.81309L45.1869 4.76542L48.8968 7.32085Z" fill="#FFBE1E"/>
<path id="Star Icon_5" fill-rule="evenodd" clip-rule="evenodd" d="M63.9591 7.32085L62.4897 12L66.2582 9.01693L70.2082 11.8114L70.195 11.7718L70.1274 11.5697L70.3369 11.714L68.7532 7.27029L72.3116 4.89327L67.8789 4.84629L66.2582 0L64.7467 4.81309L60.2493 4.76542L63.9591 7.32085Z" fill="#EFEFF4"/>
</g>
</svg>
